<?xml version="1.0" encoding="UTF-8"?><svg id="Layer_1" xmlns="http://www.w3.org/2000/svg" viewBox="0 0 577.78 577.78"><defs><style>.cls-1{fill:#fff;}.cls-2{fill:#ff9866;}</style></defs><circle class="cls-2" cx="288.89" cy="288.89" r="280.07"/><path class="cls-1" d="M150.42,255.1c-18.54,0-33.57,15.03-33.57,33.57s15.03,33.57,33.57,33.57,33.57-15.03,33.57-33.57-15.03-33.57-33.57-33.57Z"/><path class="cls-1" d="M316.33,154.64l-132.41-.1c-36.09,0-66.12,28.55-67.06,65.24-.03,.98,.78,1.79,1.76,1.79l132.41,.08v.02c36.09,0,66.12-28.55,67.06-65.24,.03-.98-.78-1.79-1.76-1.79Z"/><path class="cls-1" d="M118.62,355.32l132.41-.1c36.09,0,66.12,28.55,67.06,65.24,.03,.98-.78,1.79-1.76,1.79l-132.41,.08v.02c-36.09,0-66.12-28.55-67.06-65.24-.03-.98,.78-1.79,1.76-1.79Z"/><path class="cls-1" d="M452.82,324.26v19.23h-90.12c1.7-31.67,17.16-47.13,38.46-60.52,14.33-9.05,28.28-16.21,28.28-32.62,0-11.88-5.84-19.61-18.29-19.61-17.91,0-20.55,14.52-20.36,26.21l-23.38-3.58c-.19-19.98,11.31-41.29,44.49-41.29,24.7,0,40.72,14.33,40.72,38.84,0,22.44-14.14,33.37-33.56,45.44-14.14,8.67-25.64,15.65-28.85,27.9h62.59Z"/></svg>