<?xml version="1.0" encoding="UTF-8"?><svg id="Layer_1" xmlns="http://www.w3.org/2000/svg" viewBox="0 0 577.78 577.78"><defs><style>.cls-1{fill:#fff;}.cls-2{fill:#ff9866;}</style></defs><circle class="cls-2" cx="288.89" cy="288.89" r="279.93" transform="translate(-119.66 288.89) rotate(-45)"/><circle class="cls-1" cx="221.63" cy="289.11" r="33.67"/><path class="cls-1" d="M388.05,154.67l-132.82-.1c-36.21,0-66.32,28.63-67.27,65.44-.03,.99,.78,1.79,1.77,1.8l132.82,.08v.02c36.21,0,66.32-28.63,67.27-65.44,.03-.99-.78-1.79-1.77-1.8Z"/><path class="cls-1" d="M189.73,355.97l132.82-.1c36.21,0,66.32,28.63,67.27,65.44,.03,.99-.78,1.79-1.77,1.8l-132.82,.08v.02c-36.21,0-66.32-28.63-67.27-65.44-.03-.99,.78-1.79,1.77-1.8Z"/></svg>