<?xml version="1.0" encoding="UTF-8"?><svg id="Layer_1" xmlns="http://www.w3.org/2000/svg" viewBox="0 0 577.78 577.78"><defs><style>.cls-1{fill:#fff;}.cls-1,.cls-2{stroke-width:0px;}.cls-2{fill:#e62058;}</style></defs><path class="cls-2" d="m288.89,567.64V10.14C134.94,10.14,10.14,134.94,10.14,288.89s124.8,278.75,278.75,278.75Z"/><path class="cls-1" d="m289.89,11.15c73.81.26,143.17,29.13,195.4,81.35,52.46,52.46,81.35,122.21,81.35,196.4s-28.89,143.94-81.35,196.4c-52.22,52.22-121.58,81.09-195.4,81.35V11.15Z"/><path class="cls-2" d="m290.89,12.15c36.65.26,72.21,7.57,105.72,21.74,32.95,13.94,62.55,33.89,87.97,59.31,25.42,25.42,45.37,55.01,59.31,87.97,14.43,34.12,21.75,70.36,21.75,107.72s-7.32,73.6-21.75,107.72c-13.94,32.95-33.89,62.55-59.31,87.97-25.42,25.42-55.01,45.37-87.97,59.31-33.51,14.17-69.07,21.48-105.72,21.74V12.15m-2-2.01v557.49c153.95,0,278.75-124.8,278.75-278.75S442.84,10.14,288.89,10.14h0Z"/><path class="cls-2" d="m493.96,263.14c3.33-22.25-13.61-34.2-36.77-42.18l7.51-30.13-18.34-4.57-7.31,29.34c-4.82-1.2-9.77-2.34-14.7-3.46l7.37-29.53-18.33-4.57-7.52,30.12c-3.99-.91-7.91-1.81-11.71-2.75l.02-.09-25.3-6.32-4.88,19.59s13.61,3.12,13.32,3.31c7.43,1.85,8.77,6.77,8.55,10.67l-8.56,34.33c.51.13,1.17.32,1.91.61-.61-.15-1.26-.32-1.94-.48l-12,48.09c-.91,2.26-3.21,5.64-8.41,4.36.18.27-13.33-3.33-13.33-3.33l-9.11,21,23.87,5.95c4.44,1.11,8.79,2.28,13.08,3.37l-7.59,30.48,18.32,4.57,7.52-30.16c5.01,1.36,9.86,2.61,14.62,3.79l-7.49,30.01,18.34,4.57,7.59-30.42c31.28,5.92,54.8,3.53,64.7-24.76,7.98-22.78-.4-35.92-16.85-44.48,11.99-2.76,21.01-10.65,23.42-26.93h0s0,0,0,0Zm-41.91,58.77c-5.67,22.78-44.02,10.47-56.45,7.38l10.07-40.38c12.43,3.1,52.31,9.25,46.38,33h0Zm5.67-59.1c-5.17,20.72-37.09,10.19-47.45,7.61l9.13-36.62c10.35,2.58,43.7,7.4,38.32,29.01h0Z"/><path class="cls-1" d="m195.42,268.63l-80.72-.06c-22,0-40.31,17.4-40.88,39.77-.02.6.48,1.09,1.08,1.09l80.72.05h0c22,.01,40.31-17.39,40.88-39.76.02-.6-.48-1.09-1.08-1.09Z"/><path class="cls-1" d="m236.33,207.35l-121.63-.06c-22,0-40.31,17.4-40.88,39.77-.02.6.48,1.09,1.08,1.09l121.62.05h0c22,.01,40.31-17.39,40.88-39.76.02-.6-.48-1.09-1.08-1.09Z"/><circle class="cls-1" cx="94.27" cy="350.03" r="20.45"/></svg>