<?xml version="1.0" encoding="UTF-8"?><svg id="Layer_1" xmlns="http://www.w3.org/2000/svg" viewBox="0 0 577.78 577.78"><defs><style>.cls-1{fill:#fff;}.cls-1,.cls-2{stroke-width:0px;}.cls-2{fill:#e62058;}</style></defs><path class="cls-1" d="m289.89,11.15c73.81.26,143.17,29.13,195.4,81.35,52.46,52.46,81.35,122.21,81.35,196.4s-28.89,143.94-81.35,196.4c-52.22,52.22-121.58,81.09-195.4,81.35V11.15Z"/><path class="cls-2" d="m290.89,12.15c36.65.26,72.21,7.57,105.72,21.74,32.95,13.94,62.55,33.89,87.97,59.31,25.42,25.42,45.37,55.01,59.31,87.97,14.43,34.12,21.75,70.36,21.75,107.72s-7.32,73.6-21.75,107.72c-13.94,32.95-33.89,62.55-59.31,87.97-25.42,25.42-55.01,45.37-87.97,59.31-33.51,14.17-69.07,21.48-105.72,21.74V12.15m-2-2.01v557.49c153.95,0,278.75-124.8,278.75-278.75S442.84,10.14,288.89,10.14h0Z"/><path class="cls-2" d="m288.89,567.64V10.14C134.94,10.14,10.14,134.94,10.14,288.89s124.8,278.75,278.75,278.75Z"/><path class="cls-1" d="m195.42,268.63l-80.72-.06c-22,0-40.31,17.4-40.88,39.77-.02.6.48,1.09,1.08,1.09l80.72.05h0c22,.01,40.31-17.39,40.88-39.76.02-.6-.48-1.09-1.08-1.09Z"/><path class="cls-1" d="m236.33,207.35l-121.63-.06c-22,0-40.31,17.4-40.88,39.77-.02.6.48,1.09,1.08,1.09l121.62.05h0c22,.01,40.31-17.39,40.88-39.76.02-.6-.48-1.09-1.08-1.09Z"/><circle class="cls-1" cx="94.27" cy="350.03" r="20.45"/><g id="sHouvH"><path class="cls-2" d="m428.47,378.14h-70.46c.01-.18.03-.35.03-.53,0-26.56,0-53.12,0-79.68,0-.45-.09-.9-.15-1.48h-21.51v-19.52h21.92c0-.79,0-1.32,0-1.85,0-14.41-.01-28.81,0-43.22,0-11.97.04-23.95.07-35.92,23.37,0,46.74,0,70.11,0,.45.1.91.27,1.37.3,12.32.93,23.89,4.42,34.44,10.8,23.35,14.13,36.98,34.79,39.94,61.97.99,9.09.54,18.35.58,27.54.04,10.79-1.85,21.26-6.19,31.16-11.68,26.64-31.8,43.04-60.32,48.98-3.23.67-6.53.97-9.8,1.43Zm-35.55-34.84c10.4,0,20.6.05,30.79-.03,2.59-.02,5.21-.29,7.77-.71,18.64-3.05,34.27-18.23,37.54-36.87,1.97-11.22,1.76-22.66.5-33.87-2.7-24.02-22.55-41.07-46.73-41.08-9.25,0-18.5,0-27.75,0-.69,0-1.37,0-2.09,0v46.05h36.04v19.53h-36.07v46.98Z"/></g></svg>