<svg width="512" height="512" fill="none" xmlns="http://www.w3.org/2000/svg"><g clip-path="url(#a)" fill="#000"><path d="M393.143 100.436c65.643 0 118.856-33.187 118.856-100.436H125.814C60.171 0 6.957 33.185 6.957 100.436h386.186ZM216.166 308.623c65.641 0 118.856-33.185 118.856-100.436H118.856C53.216 208.187 0 241.372 0 308.623h216.166ZM16.596 494.997c22.13 22.67 58.005 22.67 80.135 0 22.128-22.67 22.128-59.425 0-82.097-22.13-22.67-58.005-22.67-80.135 0-22.128 22.672-22.128 59.427 0 82.097Z"/></g><defs><clipPath id="a"><path fill="#fff" d="M0 0h512v512H0z"/></clipPath></defs></svg>