<?xml version="1.0" encoding="UTF-8"?>
<svg xmlns="http://www.w3.org/2000/svg" xmlns:xlink="http://www.w3.org/1999/xlink" width="500px" height="500px" viewBox="0 0 500 500" version="1.1">
<g id="surface1">
<path style=" stroke:none;fill-rule:nonzero;fill:rgb(90.196079%,12.54902%,34.509805%);fill-opacity:1;" d="M 498.34375 249.558594 C 498.34375 112.402344 387.15625 1.214844 250 1.214844 C 112.84375 1.214844 1.65625 112.402344 1.65625 249.558594 C 1.65625 386.71875 112.84375 497.90625 250 497.90625 C 387.15625 497.90625 498.34375 386.71875 498.34375 249.558594 Z M 498.34375 249.558594 "/>
<path style=" stroke:none;fill-rule:nonzero;fill:rgb(100%,100%,100%);fill-opacity:1;" d="M 360.394531 123.714844 L 405.519531 123.714844 L 311.601562 216.730469 C 295.179688 232.90625 273.054688 241.976562 250 241.976562 C 226.949219 241.976562 204.824219 232.90625 188.402344 216.730469 L 94.40625 123.714844 L 139.609375 123.714844 L 210.964844 194.335938 C 221.359375 204.59375 235.371094 210.34375 249.96875 210.34375 C 264.570312 210.34375 278.582031 204.59375 288.976562 194.335938 Z M 139.0625 382.335938 L 93.859375 382.335938 L 188.402344 288.757812 C 204.824219 272.582031 226.949219 263.511719 250 263.511719 C 273.054688 263.511719 295.179688 272.582031 311.601562 288.757812 L 406.140625 382.320312 L 360.941406 382.320312 L 289.035156 311.089844 C 278.644531 300.832031 264.632812 295.082031 250.03125 295.082031 C 235.433594 295.082031 221.417969 300.832031 211.027344 311.089844 L 139.046875 382.335938 Z M 139.0625 382.335938 "/>
</g>
</svg>
