<?xml version="1.0" encoding="UTF-8"?><svg id="Layer_1" xmlns="http://www.w3.org/2000/svg" viewBox="0 0 577.78 577.78"><defs><style>.cls-1{fill:#fff;}.cls-1,.cls-2{stroke-width:0px;}.cls-2{fill:#e62058;}</style></defs><path class="cls-1" d="m289.89,11.15c73.81.26,143.17,29.13,195.4,81.35,52.46,52.46,81.35,122.21,81.35,196.4s-28.89,143.94-81.35,196.4c-52.22,52.22-121.58,81.09-195.4,81.35V11.15Z"/><path class="cls-2" d="m290.89,12.15c36.65.26,72.21,7.57,105.72,21.74,32.95,13.94,62.55,33.89,87.97,59.31,25.42,25.42,45.37,55.01,59.31,87.97,14.43,34.12,21.75,70.36,21.75,107.72s-7.32,73.6-21.75,107.72c-13.94,32.95-33.89,62.55-59.31,87.97-25.42,25.42-55.01,45.37-87.97,59.31-33.51,14.17-69.07,21.48-105.72,21.74V12.15m-2-2.01v557.49c153.95,0,278.75-124.8,278.75-278.75S442.84,10.14,288.89,10.14h0Z"/><path class="cls-2" d="m288.89,567.64V10.14C134.94,10.14,10.14,134.94,10.14,288.89s124.8,278.75,278.75,278.75Z"/><g id="Layer_2"><g id="Layer_1-2"><path class="cls-2" d="m487.54,210.41h27.39l-57.01,56.45c-20.65,20.43-54.12,20.43-74.78,0l-57.03-56.45h27.42l43.31,42.88c13.13,12.94,34.22,12.94,47.35,0l43.34-42.88Z"/><path class="cls-2" d="m353.19,367.37h-27.41l57.38-56.79c20.65-20.43,54.12-20.43,74.78,0l57.38,56.79h-27.39l-43.68-43.23c-13.13-12.94-34.22-12.94-47.35,0l-43.7,43.23Z"/></g></g><path class="cls-1" d="m195.42,268.63l-80.72-.06c-22,0-40.31,17.4-40.88,39.77-.02.6.48,1.09,1.08,1.09l80.72.05h0c22,.01,40.31-17.39,40.88-39.76.02-.6-.48-1.09-1.08-1.09Z"/><path class="cls-1" d="m236.33,207.35l-121.63-.06c-22,0-40.31,17.4-40.88,39.77-.02.6.48,1.09,1.08,1.09l121.62.05h0c22,.01,40.31-17.39,40.88-39.76.02-.6-.48-1.09-1.08-1.09Z"/><circle class="cls-1" cx="94.27" cy="350.03" r="20.45"/></svg>