<?xml version="1.0" encoding="utf-8"?>
<!-- Generator: Adobe Illustrator 27.0.0, SVG Export Plug-In . SVG Version: 6.00 Build 0)  -->
<svg width="500" height="500" version="1.1" id="Layer_1" xmlns="http://www.w3.org/2000/svg" xmlns:xlink="http://www.w3.org/1999/xlink" x="0px" y="0px"
	 viewBox="0 0 180 182" style="enable-background:new 0 0 180 182;" xml:space="preserve">
<style type="text/css">
	.st0{fill:#FC0DC8;}
</style>
<g>
	<path class="st0" d="M149.3,44.7v43.6l-0.1,3c-0.1,0.9-0.1,1.8-0.2,2.6v0.5l-0.1,0.7c-0.1,0.7-0.2,1.5-0.3,2.2l0,0
		c-1.3,8.2-4.4,16.2-9,23.1c-4.5,6.8-10.6,12.8-17.7,17.2c-7,4.4-15,7.3-23.3,8.4c-2.6,0.3-5.2,0.5-7.8,0.5
		c-5.7,0-11.4-0.8-16.8-2.4c-7.9-2.3-15.4-6.4-21.7-11.9c-3.1-2.7-6-5.8-8.5-9.1c-2.5-3.3-4.6-6.9-6.4-10.7
		c-3.5-7.5-5.3-15.9-5.3-24.2h10.3c0,6.8,1.5,13.7,4.3,19.9c1.4,3.1,3.2,6.1,5.2,8.8c2,2.7,4.4,5.2,7,7.5c5.2,4.5,11.4,7.9,17.9,9.8
		s13.6,2.5,20.3,1.6c6.8-0.9,13.4-3.3,19.2-6.9c5.9-3.7,10.9-8.6,14.6-14.2c3.8-5.7,6.4-12.3,7.4-19c0.1-0.6,0.2-1.3,0.3-1.9
		l0.1-0.8c0.1-0.8,0.1-1.6,0.2-2.4L139,88V33.8c-2-1.7-4-3.3-6.2-4.8v59.3l-0.1,2.3l-0.2,2.2l-0.3,2.1c-0.9,5.8-3.2,11.6-6.4,16.5
		c-3.2,4.9-7.6,9.2-12.7,12.4c-5,3.2-10.8,5.3-16.7,6c-1.9,0.2-3.8,0.4-5.6,0.4c-4.1,0-8.2-0.6-12.1-1.7c-5.6-1.6-11-4.6-15.6-8.6
		c-2.3-2-4.3-4.2-6.1-6.5c-1.8-2.4-3.3-5-4.6-7.7c-2.5-5.4-3.8-11.4-3.8-17.4h10.3c0,4.5,1,9,2.9,13.1c0.9,2,2.1,4,3.4,5.8
		s2.9,3.4,4.6,4.9c3.4,3,7.5,5.2,11.8,6.5s9,1.6,13.5,1s8.8-2.2,12.6-4.5c3.9-2.4,7.2-5.7,9.6-9.4c2.5-3.7,4.2-8,4.9-12.4l0.2-1.7
		l0.1-1.7v-1.8V23c-9.9-4.8-20.9-7.4-32.6-7.4c-41.4,0-75,33.6-75,75s33.6,75,75,75s75-33.6,75-75C165,73.3,159.1,57.4,149.3,44.7z"
		/>
</g>
</svg>
