<?xml version="1.0" encoding="utf-8"?>
<!-- Generator: Adobe Illustrator 27.8.0, SVG Export Plug-In . SVG Version: 6.00 Build 0)  -->
<svg version="1.1" id="Laag_1" xmlns="http://www.w3.org/2000/svg" xmlns:xlink="http://www.w3.org/1999/xlink" x="0px" y="0px"
	 viewBox="0 0 1000 1000" style="enable-background:new 0 0 1000 1000;" xml:space="preserve">
<style type="text/css">
	.st0{clip-path:url(#SVGID_00000053510568215436760670000017325594022653436334_);}
	.st1{fill-rule:evenodd;clip-rule:evenodd;fill:#FFFFFF;}
</style>
<g>
	<g>
		<defs>
			<circle id="SVGID_1_" cx="500" cy="500" r="496.5"/>
		</defs>
		<clipPath id="SVGID_00000083794537302738101950000005072226881879041167_">
			<use xlink:href="#SVGID_1_"  style="overflow:visible;"/>
		</clipPath>
		<g style="clip-path:url(#SVGID_00000083794537302738101950000005072226881879041167_);">
			<g>
				<defs>
					<rect id="SVGID_00000003084517713129218750000017607227528771605122_" x="-1.5" y="-1.5" width="1002.9" height="1002.9"/>
				</defs>
				<clipPath id="SVGID_00000117665314734891929310000008329048810676952250_">
					<use xlink:href="#SVGID_00000003084517713129218750000017607227528771605122_"  style="overflow:visible;"/>
				</clipPath>
				<g style="clip-path:url(#SVGID_00000117665314734891929310000008329048810676952250_);">
					
						<image style="overflow:visible;" width="2091" height="2091" xlink:href="C94CED62046FE516.jpg"  transform="matrix(0.48 0 0 0.48 -1.92 -1.76)">
					</image>
				</g>
			</g>
		</g>
	</g>
</g>
<path class="st1" d="M659.3,353.3V471h58.9V353.3H659.3z M571.7,471V353.3h87.6v-58.9h-87.6v-58.9h-58.9v58.9h-30v-58.9h-58.9v58.9
	h-58.9v58.9h58.9V471h-58.9v58.9h58.9v235.4h58.9V529.9h30v235.4h58.9V529.9h87.6V471H571.7L571.7,471z M512.9,412.2V471h-30V353.3
	h30V412.2z"/>
</svg>
