<svg width="500" height="500" viewBox="0 0 500 500" fill="none" xmlns="http://www.w3.org/2000/svg">
<g clip-path="url(#clip0_2_10)">
<mask id="mask0_2_10" style="mask-type:luminance" maskUnits="userSpaceOnUse" x="0" y="0" width="500" height="500">
<path d="M500 0H0V500H500V0Z" fill="white"/>
</mask>
<g mask="url(#mask0_2_10)">
<path d="M420.574 420.572C514.78 326.368 514.78 173.632 420.574 79.4281C326.37 -14.776 173.634 -14.776 79.4301 79.4281C-14.7741 173.632 -14.7741 326.368 79.4301 420.572C173.634 514.775 326.37 514.775 420.574 420.572Z" fill="url(#paint0_linear_2_10)"/>
</g>
<path d="M316.132 201.45L185.123 201.351C149.408 201.351 119.702 229.59 118.772 265.9C118.742 266.87 119.544 267.672 120.515 267.672L251.523 267.752V267.771C287.239 267.771 316.944 239.532 317.875 203.222C317.905 202.252 317.102 201.45 316.132 201.45Z" fill="white"/>
<path d="M382.533 101.997L185.133 101.898C149.418 101.898 119.713 130.138 118.782 166.447C118.752 167.418 119.554 168.22 120.524 168.22L317.925 168.299V168.319C353.64 168.319 383.345 140.079 384.276 103.77C384.306 102.799 383.503 101.997 382.533 101.997Z" fill="white"/>
<path d="M195.453 360.483C195.286 375.546 185.824 389.445 171.81 395.146C157.083 401.145 140.311 397.605 129.221 386.166C118.713 375.332 115.944 359.307 122.16 345.016C128.139 331.284 137.636 319.892 146.694 308.203C149.476 304.615 152.316 301.063 155.05 297.44C156.31 295.777 157.321 294.708 158.996 297.095C169.255 311.707 181.723 324.738 190.044 340.716C193.265 346.893 195.583 353.356 195.453 360.459V360.483ZM176.862 356.527C176.494 365.449 172.916 372.516 164.916 376.995C162.586 378.302 160.09 379.703 161.303 382.852C162.574 386.166 165.653 385.869 168.423 385.251C177.123 383.327 183.768 379.288 186.455 369.891C189.057 360.756 186.181 349.233 179.418 345.408C178.062 344.636 176.541 343.531 175.055 344.719C173.629 345.86 174.877 347.166 175.352 348.426C176.315 351.027 176.933 353.724 176.862 356.539V356.527Z" fill="white"/>
</g>
<defs>
<linearGradient id="paint0_linear_2_10" x1="10.9266" y1="271.199" x2="492.218" y2="228.801" gradientUnits="userSpaceOnUse">
<stop stop-color="#8A5C00"/>
<stop offset="0.1" stop-color="#AA8226"/>
<stop offset="0.4" stop-color="#E7CB6D"/>
<stop offset="0.5" stop-color="#FFE88A"/>
<stop offset="0.7" stop-color="#FFDC73"/>
<stop offset="1" stop-color="#C2912E"/>
</linearGradient>
<clipPath id="clip0_2_10">
<rect width="500" height="500" fill="white"/>
</clipPath>
</defs>
</svg>
