<svg width="1001" height="1001" viewBox="0 0 1001 1001" fill="none" xmlns="http://www.w3.org/2000/svg">
<g clip-path="url(#clip0_125_385)">
<path d="M841.989 841.985C1030.59 653.388 1030.59 347.612 841.989 159.015C653.392 -29.5816 347.616 -29.5816 159.019 159.015C-29.5779 347.612 -29.5779 653.388 159.019 841.985C347.616 1030.58 653.392 1030.58 841.989 841.985Z" fill="url(#paint0_linear_125_385)"/>
</g>
<path d="M632.896 403.303L370.616 403.104C299.114 403.104 239.644 459.64 237.781 532.332C237.721 534.274 239.327 535.88 241.27 535.88L503.55 536.039V536.078C575.052 536.078 634.522 479.543 636.385 406.851C636.445 404.908 634.839 403.303 632.896 403.303Z" fill="white"/>
<path d="M765.831 204.198L370.637 204C299.134 204 239.665 260.536 237.801 333.227C237.742 335.17 239.348 336.776 241.29 336.776L636.485 336.934V336.974C707.987 336.974 767.457 280.438 769.32 207.747C769.38 205.804 767.774 204.198 765.831 204.198Z" fill="white"/>
<path d="M391.296 721.687C390.963 751.843 372.02 779.668 343.964 791.083C314.48 803.093 280.902 796.006 258.7 773.104C237.664 751.414 232.119 719.332 244.565 690.722C256.535 663.23 275.548 640.423 293.681 617.022C299.25 609.839 304.937 602.729 310.41 595.475C312.933 592.146 314.956 590.005 318.311 594.785C338.848 624.037 363.81 650.126 380.468 682.113C386.917 694.48 391.558 707.418 391.296 721.639V721.687ZM354.078 713.767C353.34 731.628 346.177 745.778 330.162 754.744C325.498 757.36 320.5 760.166 322.928 766.469C325.474 773.104 331.637 772.509 337.182 771.273C354.601 767.42 367.904 759.334 373.282 740.522C378.493 722.234 372.734 699.165 359.194 691.507C356.481 689.961 353.435 687.75 350.46 690.128C347.605 692.411 350.104 695.027 351.055 697.548C352.983 702.756 354.22 708.155 354.078 713.791V713.767Z" fill="white"/>
<defs>
<linearGradient id="paint0_linear_125_385" x1="21.8749" y1="542.94" x2="985.42" y2="458.06" gradientUnits="userSpaceOnUse">
<stop stop-color="#8A5C00"/>
<stop offset="0.1" stop-color="#AA8226"/>
<stop offset="0.4" stop-color="#E7CB6D"/>
<stop offset="0.5" stop-color="#FFE88A"/>
<stop offset="0.7" stop-color="#FFDC73"/>
<stop offset="1" stop-color="#C2912E"/>
</linearGradient>
<clipPath id="clip0_125_385">
<rect width="1001" height="1001" fill="white"/>
</clipPath>
</defs>
</svg>
