<svg width="512" height="512" fill="none" xmlns="http://www.w3.org/2000/svg"><path fill-rule="evenodd" clip-rule="evenodd" d="M70.173 512V.006H441.91V0H70.17v512h.003Zm74.258-483.55c-1.326-1.108-8.586-7.036-16.117-13.174-7.531-6.138-14.008-11.438-14.369-11.767-.513-.45-.693-.51-.693-.18 0 .39 6.808 21.199 29.823 91.292a50325.59 50325.59 0 0 1 16.117 49.104c7.25 22.078 14.535 44.28 20.625 62.843 6.589 20.08 11.78 35.902 14.018 42.701 2.561 7.725 5.152 15.659 5.754 17.576.633 1.946 1.235 3.533 1.356 3.533.241 0 2.862-3.264 22.804-28.265 6.025-7.545 13.556-16.977 16.75-20.959 3.942-4.937 14.004-17.534 24.146-30.23l25.861-32.378c2.741-3.473 5.001-6.348 4.97-6.437 0-.09-1.596-1.438-3.524-3.024-1.746-1.41-13.323-10.873-26.7-21.807l-4.238-3.464c-9.965-8.161-21.921-17.934-31.436-25.712-4.868-3.98-9.097-7.436-12.095-9.889a50180.256 50180.256 0 0 1-25.455-20.839l-2.833-2.319c-4.485-3.671-9.298-7.612-11.627-9.508a23155.431 23155.431 0 0 1-31.723-25.94l-1.414-1.157Zm160.053 139.564c-1.373-2.953-2.322-4.995-2.621-5.635-.753-1.677-1.476-3.084-1.567-3.084-.12 0-.391.299-.662.658-.241.389-3.736 4.821-7.773 9.851a9908.614 9908.614 0 0 1-15.333 19.163 4993.569 4993.569 0 0 1-13.104 16.438 16139.22 16139.22 0 0 0-16.268 20.36c-14.49 18.144-25.877 32.396-33.679 42.157-3.465 4.342-6.236 7.935-6.146 8.025.061.09 24.251 3.233 53.713 7.006l24.727 3.162c22.258 2.846 43.585 5.573 53.416 6.839 13.496 1.736 24.582 3.113 24.642 3.054.121-.12-1.988-4.731-13.194-28.774l-4.517-9.707c-3.781-8.124-8.49-18.241-12.263-26.373-3.206-6.872-7.588-16.302-11.805-25.374-3.113-6.699-6.136-13.203-8.529-18.34-3.482-7.477-6.814-14.645-9.037-19.426Zm106.263 8.545.529-1.485c.693-1.827.964-2.905.723-2.875-.663.03-78.355 38.176-78.445 38.505-.12.33 2.802 6.677 22.955 49.943 4.76 10.21 9.73 20.929 11.056 23.803 1.325 2.875 2.5 5.36 2.651 5.479.12.15.512-.539.843-1.497.332-.958 9.158-25.869 19.642-55.332 10.483-29.492 19.159-53.924 19.28-54.343.082-.289.393-1.158.766-2.198Zm26.466 91.094c.151-.12-2.47-12.635-14.55-69.554-2.169-10.21-4.006-18.594-4.097-18.684-.03-.03-.027-.131-.05-.137-.12-.034-.918 2.302-10.012 27.893-7.621 21.498-9.338 26.558-9.007 26.828.115.114 2.589 2.334 6.392 5.746 3.191 2.864 7.319 6.568 11.773 10.572 9.791 8.773 18.136 16.288 18.587 16.707.452.419.904.689.964.629ZM291.695 295.04c-18.686-2.391-38.99-4.99-52.281-6.697-19.34-2.456-35.457-4.492-35.788-4.492-.331 0-.663.18-.723.36-.06.209-.813 6.317-1.627 13.563-.843 7.246-4.067 34.912-7.169 61.44-3.103 26.558-5.574 48.356-5.483 48.445.09.09 16.809-10.03 37.174-22.486 75.312-46.11 102.454-62.727 117.004-71.62 8.194-5 15.093-9.282 15.334-9.491.331-.33.211-.419-.753-.569-.663-.12-19.551-2.545-41.994-5.419-7.02-.9-15.19-1.945-23.694-3.034Zm-108.829 88.618 1.48-12.497c4.639-39.164 8.375-71.291 8.315-71.351-.181-.209-.482.27-5.965 10.09-1.526 2.7-4.171 7.403-7.09 12.591-2.325 4.134-4.824 8.577-7.069 12.56a98353.91 98353.91 0 0 0-24.19 42.966l-5.306 9.433c-6.35 11.288-12.026 21.378-13.823 24.551-1.281 2.292-5.023 8.936-9.813 17.442-3.658 6.494-7.926 14.074-12.178 21.632a60492.872 60492.872 0 0 1-24.913 44.253c-3.887 6.917-7.02 12.606-6.93 12.666.061.059 4.369-1.138 9.58-2.695 2.39-.714 5.647-1.68 9.072-2.695a5363.83 5363.83 0 0 0 11.684-3.473 5156.913 5156.913 0 0 0 21.841-6.468c4.265-1.251 11.967-3.535 19.359-5.726l7.753-2.298c15.213-4.491 16.599-4.94 16.81-5.599.12-.389 1.145-8.803 2.319-18.683 1.023-8.83 4.933-41.831 9.064-76.699Z" fill="#000"/></svg>