<svg width="150" height="150" viewBox="0 0 150 150" fill="none" xmlns="http://www.w3.org/2000/svg">
<circle cx="75" cy="75" r="75" fill="url(#paint0_linear_19151_322)"/>
<path d="M108.493 35.9941H122.121L93.7574 64.085C88.7984 68.971 82.1163 71.7099 75.1548 71.7099C68.1933 71.7099 61.5113 68.971 56.5522 64.085L28.1651 35.9941H41.8163L63.3661 57.3229C66.5043 60.4203 70.736 62.1571 75.1454 62.1571C79.5546 62.1571 83.7865 60.4203 86.9247 57.3229L108.493 35.9941ZM41.6514 114.099H28L56.5522 85.8381C61.5113 80.9522 68.1933 78.2134 75.1548 78.2134C82.1163 78.2134 88.7984 80.9522 93.7574 85.8381L122.31 114.094H108.658L86.9435 92.5815C83.8054 89.484 79.5735 87.7473 75.1643 87.7473C70.755 87.7473 66.5231 89.484 63.385 92.5815L41.6466 114.099H41.6514Z" fill="white"/>
<defs>
<linearGradient id="paint0_linear_19151_322" x1="33" y1="137" x2="124" y2="19" gradientUnits="userSpaceOnUse">
<stop stop-color="#F25125"/>
<stop offset="1" stop-color="#FC980C"/>
</linearGradient>
</defs>
</svg>
