<svg width="500" height="500" viewBox="0 0 500 500" fill="none" xmlns="http://www.w3.org/2000/svg">
<g clip-path="url(#clip0_4_13)">
<path d="M250 496C386.326 496 496 386.326 496 250C496 113.674 386.326 4 250 4C113.674 4 4 113.674 4 250C4 386.326 113.674 496 250 496Z" fill="#2775CA"/>
<path d="M317.65 288.949C317.65 253.075 296.125 240.775 253.075 235.651C222.325 231.55 216.175 223.351 216.175 208.999C216.175 194.648 226.426 185.425 246.925 185.425C265.375 185.425 275.626 191.575 280.75 206.95C281.776 210.025 284.851 212.074 287.926 212.074H304.324C308.425 212.074 311.5 208.999 311.5 204.901V203.875C307.399 181.324 288.949 163.9 265.375 161.851V137.251C265.375 133.15 262.3 130.075 257.176 129.049H241.801C237.7 129.049 234.625 132.124 233.599 137.251V160.825C202.849 164.926 183.376 185.425 183.376 211.051C183.376 244.876 203.875 258.199 246.925 263.326C275.626 268.45 284.851 274.6 284.851 291.001C284.851 307.402 270.499 318.676 251.026 318.676C224.374 318.676 215.149 307.399 212.074 292.024C211.051 287.926 207.976 285.874 204.901 285.874H187.474C183.376 285.874 180.301 288.949 180.301 293.05V294.076C184.399 319.699 200.8 338.149 234.625 343.276V367.876C234.625 371.974 237.7 375.049 242.824 376.075H258.199C262.3 376.075 265.375 373 266.401 367.876V343.276C297.151 338.149 317.65 316.624 317.65 288.949Z" fill="white"/>
<path d="M197.725 396.574C117.775 367.876 76.7742 278.701 106.501 199.774C121.876 156.724 155.701 123.925 197.725 108.55C201.826 106.501 203.875 103.426 203.875 98.2992V83.95C203.875 79.8492 201.826 76.7742 197.725 75.7508C196.699 75.7508 194.65 75.7508 193.624 76.7742C96.25 107.524 42.9491 211.051 73.6991 308.425C92.1491 365.824 136.225 409.9 193.624 428.35C197.725 430.399 201.826 428.35 202.849 424.249C203.875 423.226 203.875 422.2 203.875 420.151V405.799C203.875 402.724 200.8 398.626 197.725 396.574ZM306.376 76.7742C302.275 74.725 298.174 76.7742 297.151 80.875C296.125 81.9008 296.125 82.9242 296.125 84.9758V99.325C296.125 103.426 299.2 107.524 302.275 109.576C382.225 138.274 423.226 227.449 393.499 306.376C378.124 349.426 344.299 382.225 302.275 397.6C298.174 399.649 296.125 402.724 296.125 407.851V422.2C296.125 426.301 298.174 429.376 302.275 430.399C303.301 430.399 305.35 430.399 306.376 429.376C403.75 398.626 457.051 295.099 426.301 197.725C407.851 139.3 362.749 95.2242 306.376 76.7742Z" fill="white"/>
</g>
<defs>
<clipPath id="clip0_4_13">
<rect width="492" height="492" fill="white" transform="translate(4 4)"/>
</clipPath>
</defs>
</svg>
