<svg width="500" height="500" viewBox="0 0 500 500" fill="none" xmlns="http://www.w3.org/2000/svg">
<path d="M4 250C4 114.138 114.138 4 250 4C385.862 4 496 114.138 496 250C496 385.862 385.862 496 250 496C114.138 496 4 385.862 4 250Z" fill="#26A17B"/>
<path d="M277.114 273.562V273.521C275.408 273.641 266.6 274.157 247 274.157C231.327 274.157 220.336 273.721 216.448 273.521V273.562C156.178 270.903 111.223 260.428 111.223 247.851C111.223 235.313 156.217 224.798 216.448 222.139V263.127C220.375 263.404 231.684 264.079 247.277 264.079C266.005 264.079 275.369 263.285 277.114 263.127V222.18C337.266 224.877 382.101 235.352 382.101 247.891C382.101 260.428 337.225 270.903 277.114 273.601V273.562ZM277.114 217.934V181.271H361.032V125.366H132.569V181.271H216.487V217.934C148.281 221.068 97.0188 234.559 97.0188 250.747C97.0188 266.936 148.322 280.425 216.487 283.6V401.124H277.155V283.6C345.24 280.466 396.424 266.975 396.424 250.787C396.424 234.638 345.24 221.108 277.155 217.973" fill="white"/>
</svg>
