<?xml version="1.0" encoding="UTF-8"?><svg id="Layer_1" xmlns="http://www.w3.org/2000/svg" xmlns:xlink="http://www.w3.org/1999/xlink" viewBox="0 0 577.78 577.78"><defs><style>.cls-1{fill:none;}.cls-2{clip-path:url(#clippath);}.cls-3{fill:#fff;}.cls-4{fill:#ff9866;}</style><clipPath id="clippath"><circle class="cls-1" cx="288.89" cy="288.85" r="280.03" transform="translate(-119.63 288.88) rotate(-45)"/></clipPath></defs><circle class="cls-3" cx="288.89" cy="288.85" r="280.03" transform="translate(-119.63 288.88) rotate(-45)"/><circle class="cls-4" cx="150.44" cy="288.67" r="33.56"/><path class="cls-4" d="M316.32,154.66l-132.39-.1c-36.09,0-66.11,28.54-67.05,65.23-.03,.98,.78,1.79,1.76,1.79l132.39,.08v.02c36.09,0,66.11-28.54,67.05-65.23,.03-.98-.78-1.79-1.76-1.79Z"/><path class="cls-4" d="M118.64,355.31l132.39-.1c36.09,0,66.11,28.54,67.05,65.23,.03,.98-.78,1.79-1.76,1.79l-132.39,.08v.02c-36.09,0-66.11-28.54-67.05-65.23-.03-.98,.78-1.79,1.76-1.79Z"/><path class="cls-4" d="M452.8,324.26v19.23h-90.11c1.7-31.67,17.15-47.13,38.46-60.51,14.33-9.05,28.28-16.21,28.28-32.61,0-11.88-5.84-19.61-18.29-19.61-17.91,0-20.55,14.52-20.36,26.2l-23.38-3.58c-.19-19.98,11.31-41.28,44.49-41.28,24.69,0,40.72,14.33,40.72,38.83,0,22.43-14.14,33.37-33.55,45.43-14.14,8.67-25.64,15.65-28.84,27.9h62.58Z"/><path class="cls-4" d="M545.19,281.12h0c.05,1.66,1.43,2.96,3.09,2.91s2.96-1.43,2.91-3.09-1.43-2.96-3.09-2.91-2.96,1.43-2.91,3.09Zm-.02-.51h0c.05,1.66,1.44,2.96,3.1,2.9s2.96-1.44,2.9-3.1h0c-.05-1.66-1.44-2.95-3.09-2.9-1.66,.05-2.96,1.44-2.9,3.09h0Zm-2.66-29.69h0c.24,1.64,1.77,2.77,3.41,2.53,1.64-.24,2.77-1.77,2.53-3.41h0c-.24-1.64-1.77-2.77-3.41-2.53-1.64,.24-2.77,1.77-2.53,3.41h0Zm-6.08-29.18h0c.43,1.6,2.08,2.55,3.68,2.11s2.55-2.08,2.11-3.68h0c-.43-1.6-2.08-2.55-3.68-2.11-1.6,.43-2.55,2.08-2.11,3.68h0Zm-9.45-28.27h0c.62,1.54,2.36,2.29,3.9,1.67s2.28-2.36,1.67-3.9c-.62-1.54-2.36-2.29-3.9-1.67s-2.28,2.36-1.67,3.9Zm-12.69-26.98h0c.79,1.46,2.61,1.99,4.07,1.2s1.99-2.61,1.2-4.07h0c-.79-1.46-2.61-1.99-4.07-1.2-1.46,.79-1.99,2.61-1.2,4.07h0Zm-15.74-25.3h0c.96,1.35,2.83,1.68,4.18,.72,1.35-.96,1.68-2.83,.72-4.18h0c-.96-1.35-2.83-1.68-4.18-.72-1.35,.96-1.68,2.83-.72,4.18h0Zm-18.57-23.32h0c1.11,1.23,3,1.34,4.24,.23,1.23-1.11,1.34-3,.23-4.24h0c-1.11-1.23-3-1.34-4.24-.23-1.23,1.11-1.34,3-.23,4.24h0Zm-21.14-21.02h0c1.24,1.1,3.14,.98,4.23-.26,1.1-1.24,.98-3.14-.26-4.23-1.24-1.1-3.14-.98-4.23,.26-1.1,1.24-.98,3.14,.26,4.23Zm-23.43-18.44h0c1.36,.95,3.23,.61,4.18-.74,.95-1.36,.61-3.23-.74-4.18h0c-1.36-.95-3.23-.61-4.18,.74-.95,1.36-.61,3.23,.75,4.18h0Zm-25.41-15.61h0c1.46,.78,3.28,.24,4.06-1.22,.78-1.46,.24-3.28-1.22-4.06s-3.28-.24-4.06,1.22c-.78,1.46-.24,3.28,1.22,4.06Zm-27.05-12.55h0c1.54,.61,3.28-.15,3.89-1.69s-.15-3.28-1.69-3.89h0c-1.54-.61-3.28,.15-3.89,1.69-.61,1.54,.15,3.28,1.69,3.89h0Zm-28.34-9.31h0c1.6,.42,3.24-.53,3.67-2.13,.42-1.6-.53-3.24-2.13-3.67h0c-1.6-.42-3.24,.53-3.67,2.13s.53,3.24,2.13,3.67h0Zm-29.21-5.93h0c1.64,.23,3.16-.91,3.39-2.55,.23-1.64-.91-3.16-2.55-3.39h0c-1.64-.23-3.16,.91-3.39,2.55s.91,3.16,2.55,3.39h0Zm-29.71-2.49h0c1.66,.04,3.03-1.27,3.08-2.92,.04-1.66-1.27-3.03-2.92-3.08s-3.03,1.27-3.08,2.92c-.04,1.66,1.27,3.03,2.92,3.08Zm-29.81,.94h0c1.65-.15,2.87-1.6,2.72-3.25-.15-1.65-1.6-2.87-3.25-2.72h0c-1.65,.15-2.87,1.6-2.72,3.26,.15,1.65,1.6,2.87,3.25,2.72h0Zm-29.49,4.36h0c1.62-.34,2.66-1.93,2.33-3.55s-1.93-2.66-3.55-2.33h0c-1.62,.34-2.66,1.93-2.33,3.55,.34,1.62,1.93,2.66,3.55,2.33h0Zm-28.78,7.76h0c1.57-.52,2.42-2.22,1.9-3.8-.52-1.57-2.22-2.42-3.8-1.9h0c-1.57,.52-2.42,2.22-1.9,3.8s2.22,2.42,3.8,1.9h0Zm-27.68,11.08h0c1.5-.7,2.14-2.49,1.44-3.99-.7-1.5-2.49-2.14-3.99-1.44h0c-1.5,.7-2.14,2.49-1.44,3.99s2.49,2.14,3.99,1.44h0Zm-26.18,14.22h0c1.41-.87,1.84-2.72,.97-4.13-.87-1.41-2.72-1.84-4.13-.96s-1.84,2.72-.97,4.13c.87,1.41,2.72,1.84,4.13,.96Zm-24.36,17.17h0c1.3-1.03,1.51-2.92,.48-4.22-1.03-1.3-2.92-1.51-4.22-.48h0c-1.3,1.03-1.51,2.92-.48,4.22,1.03,1.3,2.92,1.51,4.22,.48h0Zm-22.22,19.88h0c1.17-1.17,1.16-3.07-.01-4.24s-3.07-1.16-4.24,.01c-1.17,1.17-1.16,3.07,.01,4.24s3.07,1.16,4.24-.01Zm-19.78,22.31h0c1.03-1.3,.8-3.19-.5-4.21-1.3-1.03-3.19-.8-4.21,.5-1.03,1.3-.8,3.19,.5,4.21,1.3,1.03,3.19,.8,4.21-.5Zm-17.07,24.45h0c.87-1.41,.43-3.26-.98-4.13-1.41-.87-3.26-.43-4.13,.98h0c-.87,1.41-.43,3.26,.98,4.13s3.26,.43,4.13-.98h0Zm-14.12,26.27h0c.7-1.5,.05-3.29-1.46-3.98s-3.29-.05-3.98,1.46-.05,3.29,1.46,3.98,3.29,.05,3.98-1.46Zm-10.96,27.74h0c.52-1.57-.34-3.27-1.91-3.79s-3.27,.34-3.79,1.91h0c-.52,1.57,.34,3.27,1.91,3.79,1.57,.52,3.27-.34,3.79-1.91h0Zm-7.65,28.83h0c.33-1.62-.72-3.21-2.34-3.54s-3.21,.72-3.54,2.34h0c-.33,1.62,.72,3.21,2.34,3.54,1.62,.33,3.21-.72,3.54-2.34h0Zm-4.22,29.51h0c.14-1.65-1.09-3.1-2.74-3.24-1.65-.14-3.1,1.09-3.24,2.74h0c-.14,1.65,1.09,3.1,2.74,3.24s3.1-1.09,3.24-2.74h0Zm-.78,29.8h0c-.05-1.66-1.44-2.96-3.09-2.91s-2.96,1.44-2.91,3.09h0c.05,1.66,1.44,2.96,3.09,2.91s2.96-1.44,2.9-3.09h0Zm2.64,29.7h0c-.24-1.64-1.77-2.77-3.41-2.53-1.64,.24-2.77,1.77-2.53,3.41h0c.24,1.64,1.77,2.77,3.4,2.53s2.77-1.77,2.53-3.4h0Zm6.05,29.19h0c-.43-1.6-2.08-2.55-3.68-2.12s-2.55,2.08-2.12,3.68,2.08,2.55,3.68,2.12,2.55-2.08,2.12-3.68Zm9.42,28.28h0c-.61-1.54-2.36-2.29-3.9-1.67s-2.29,2.36-1.67,3.9h0c.61,1.54,2.36,2.29,3.9,1.67,1.54-.62,2.29-2.36,1.67-3.9h0Zm12.66,26.99h0c-.79-1.46-2.61-2-4.07-1.21-1.46,.79-2,2.61-1.21,4.07h0c.79,1.46,2.61,2,4.07,1.21s2-2.61,1.21-4.07h0Zm15.71,25.32h0c-.95-1.35-2.83-1.68-4.18-.73-1.35,.95-1.68,2.83-.73,4.18h0c.95,1.35,2.83,1.68,4.18,.73s1.68-2.83,.73-4.18h0Zm18.55,23.34h0c-1.1-1.24-3-1.34-4.24-.24-1.24,1.1-1.34,3-.24,4.24h0c1.1,1.23,3,1.34,4.24,.24,1.24-1.1,1.34-3,.24-4.24h0Zm21.12,21.04h0c-1.24-1.1-3.14-.99-4.24,.25-1.1,1.24-.99,3.14,.25,4.23,1.24,1.1,3.14,.99,4.24-.25,1.1-1.24,.99-3.14-.25-4.23Zm23.41,18.47h0c-1.36-.95-3.23-.62-4.18,.74-.95,1.36-.62,3.23,.74,4.18s3.23,.62,4.18-.74c.95-1.36,.62-3.23-.74-4.18Zm25.39,15.64h0c-1.46-.79-3.28-.24-4.06,1.22-.79,1.46-.24,3.28,1.22,4.06h0c1.46,.79,3.28,.24,4.06-1.22,.79-1.46,.24-3.28-1.22-4.06h0Zm27.04,12.58h0c-1.54-.61-3.28,.14-3.89,1.69-.61,1.54,.14,3.28,1.69,3.89s3.28-.14,3.89-1.69c.61-1.54-.14-3.28-1.69-3.89Zm28.33,9.34h0c-1.6-.43-3.24,.53-3.67,2.13-.43,1.6,.53,3.24,2.13,3.67h0c1.6,.43,3.24-.53,3.67-2.13,.43-1.6-.53-3.24-2.13-3.67h0Zm29.21,5.96h0c-1.64-.24-3.16,.9-3.4,2.54-.24,1.64,.9,3.16,2.54,3.4s3.16-.9,3.4-2.54c.24-1.64-.9-3.16-2.54-3.4Zm29.7,2.52h0c-1.66-.04-3.03,1.26-3.08,2.92s1.26,3.03,2.92,3.08h0c1.66,.04,3.03-1.26,3.08-2.92,.04-1.66-1.26-3.04-2.92-3.08h0Zm29.81-.91h0c-1.65,.15-2.87,1.6-2.72,3.25,.15,1.65,1.6,2.87,3.25,2.72h0c1.65-.15,2.87-1.6,2.73-3.25-.15-1.65-1.6-2.87-3.25-2.73h0Zm29.49-4.33h0c-1.62,.34-2.67,1.92-2.33,3.55,.34,1.62,1.92,2.67,3.55,2.33h0c1.62-.34,2.67-1.92,2.33-3.55-.34-1.62-1.92-2.67-3.55-2.33h0Zm28.79-7.73h0c-1.57,.52-2.42,2.22-1.9,3.79,.52,1.57,2.22,2.42,3.79,1.9h0c1.57-.52,2.42-2.22,1.9-3.79s-2.22-2.42-3.79-1.9h0Zm27.69-11.05h0c-1.5,.7-2.15,2.49-1.44,3.99,.7,1.5,2.49,2.15,3.99,1.44h0c1.5-.7,2.15-2.49,1.44-3.99s-2.49-2.15-3.99-1.44h0Zm26.2-14.2h0c-1.41,.87-1.84,2.72-.97,4.13,.87,1.41,2.72,1.84,4.13,.97h0c1.41-.87,1.84-2.72,.97-4.13-.87-1.41-2.72-1.84-4.13-.97h0Zm24.38-17.15h0c-1.3,1.03-1.51,2.92-.48,4.21,1.03,1.3,2.92,1.51,4.22,.48h0c1.3-1.03,1.51-2.92,.48-4.21-1.03-1.3-2.92-1.51-4.21-.48h0Zm22.24-19.86h0c-1.17,1.17-1.17,3.07,0,4.24,1.17,1.17,3.07,1.17,4.24,0h0c1.17-1.17,1.17-3.07,0-4.24-1.17-1.17-3.07-1.17-4.24,0h0Zm19.8-22.29h0c-1.03,1.3-.81,3.19,.5,4.21s3.19,.81,4.21-.5h0c1.03-1.3,.8-3.19-.5-4.21s-3.19-.8-4.21,.5h0Zm17.09-24.43h0c-.87,1.41-.43,3.26,.98,4.13s3.26,.43,4.13-.98c.87-1.41,.43-3.26-.98-4.13s-3.26-.43-4.13,.98Zm14.15-26.25h0c-.7,1.5-.05,3.29,1.45,3.99,1.5,.7,3.29,.05,3.99-1.45h0c.7-1.5,.05-3.29-1.45-3.99-1.5-.7-3.29-.05-3.99,1.45h0Zm10.99-27.72h0c-.52,1.57,.33,3.27,1.91,3.79,1.57,.52,3.27-.33,3.79-1.91h0c.52-1.57-.33-3.27-1.91-3.79s-3.27,.33-3.79,1.91h0Zm7.68-28.82h0c-.33,1.62,.72,3.21,2.34,3.54,1.62,.33,3.21-.72,3.54-2.34,.33-1.62-.72-3.21-2.34-3.54-1.62-.33-3.21,.72-3.54,2.34Zm4.25-29.5h0c-.14,1.65,1.08,3.1,2.73,3.24s3.1-1.08,3.24-2.73h0c.14-1.65-1.08-3.1-2.73-3.24-1.65-.14-3.1,1.08-3.24,2.73h0Z"/><g class="cls-2"><path class="cls-4" d="M342.87,477.07h-109.5c-10.51,0-19.04,8.52-19.04,19.04v62.76c23.74,6.54,48.74,10.05,74.56,10.05s50.82-3.51,74.56-10.05v-61.22c0-11.37-9.21-20.58-20.58-20.58Z"/></g><path class="cls-3" d="M268.7,544.85l-11.55-46.73h8.74l5.27,25.77c1.33,6.61,1.54,8.08,2.14,11.68h.13c.87-3.67,1.8-7.94,2.8-11.68l6.61-25.77h8.61l6.81,25.77c1.14,4.41,1.94,7.94,2.67,11.68h.13c.67-3.67,1.2-7.21,2.14-11.68l5.14-25.77h8.74l-11.55,46.73h-9.01l-6.61-25.23c-1.07-3.87-2.07-8.08-2.8-11.81h-.13c-.73,3.87-1.54,7.68-2.6,11.95l-6.61,25.1h-9.08Z"/></svg>