<?xml version="1.0" encoding="UTF-8"?><svg id="Layer_1" xmlns="http://www.w3.org/2000/svg" xmlns:xlink="http://www.w3.org/1999/xlink" viewBox="0 0 577.78 577.78"><defs><style>.cls-1{fill:none;}.cls-2{clip-path:url(#clippath);}.cls-3{fill:#fff;}.cls-4{fill:#ff9866;}</style><clipPath id="clippath"><circle class="cls-1" cx="288.89" cy="288.85" r="279.89" transform="translate(-119.63 288.88) rotate(-45)"/></clipPath></defs><circle class="cls-3" cx="288.89" cy="288.85" r="279.89" transform="translate(-119.63 288.88) rotate(-45)"/><path class="cls-4" d="M545.06,281.12h0c.05,1.66,1.43,2.96,3.09,2.91s2.96-1.43,2.91-3.09-1.43-2.96-3.09-2.91-2.96,1.43-2.91,3.09Zm-.02-.51h0c.05,1.66,1.44,2.96,3.09,2.9,1.66-.05,2.96-1.44,2.9-3.09h0c-.05-1.66-1.44-2.95-3.09-2.9-1.66,.05-2.96,1.44-2.9,3.09h0Zm-2.66-29.68h0c.24,1.64,1.77,2.77,3.41,2.53,1.64-.24,2.77-1.77,2.53-3.41h0c-.24-1.64-1.77-2.77-3.41-2.53-1.64,.24-2.77,1.77-2.53,3.41h0Zm-6.08-29.17h0c.43,1.6,2.08,2.55,3.68,2.11s2.55-2.08,2.11-3.68h0c-.43-1.6-2.08-2.55-3.68-2.11-1.6,.43-2.55,2.08-2.11,3.68h0Zm-9.44-28.26h0c.62,1.54,2.36,2.29,3.9,1.67s2.29-2.36,1.67-3.9h0c-.62-1.54-2.36-2.29-3.9-1.67s-2.28,2.36-1.67,3.9h0Zm-12.68-26.96h0c.79,1.46,2.61,1.99,4.07,1.2,1.46-.79,1.99-2.61,1.2-4.07h0c-.79-1.46-2.61-1.99-4.07-1.2s-1.99,2.61-1.2,4.07h0Zm-15.73-25.29h0c.96,1.35,2.83,1.68,4.18,.72,1.35-.96,1.68-2.83,.72-4.18h0c-.96-1.35-2.83-1.68-4.18-.72-1.35,.96-1.68,2.83-.72,4.18h0Zm-18.56-23.31h0c1.11,1.23,3,1.34,4.24,.23,1.23-1.1,1.34-3,.23-4.24s-3-1.34-4.24-.23c-1.23,1.1-1.34,3-.23,4.24Zm-21.13-21.01h0c1.24,1.1,3.14,.98,4.23-.26,1.1-1.24,.98-3.14-.26-4.23-1.24-1.1-3.14-.98-4.23,.26-1.1,1.24-.98,3.14,.26,4.23Zm-23.42-18.43h0c1.36,.95,3.23,.61,4.18-.75,.95-1.36,.61-3.23-.74-4.18h0c-1.36-.95-3.23-.61-4.18,.75-.95,1.36-.61,3.23,.74,4.18h0Zm-25.4-15.6h0c1.46,.78,3.28,.24,4.06-1.22,.78-1.46,.24-3.28-1.22-4.06s-3.28-.24-4.06,1.22c-.78,1.46-.24,3.28,1.22,4.06Zm-27.04-12.54h0c1.54,.61,3.28-.15,3.89-1.69s-.15-3.28-1.69-3.89h0c-1.54-.61-3.28,.15-3.89,1.69-.61,1.54,.15,3.28,1.69,3.89h0Zm-28.32-9.3h0c1.6,.42,3.24-.53,3.67-2.13s-.53-3.24-2.13-3.67h0c-1.6-.42-3.24,.53-3.67,2.13s.53,3.24,2.13,3.67h0Zm-29.2-5.92h0c1.64,.23,3.16-.91,3.39-2.55s-.91-3.16-2.55-3.39h0c-1.64-.23-3.16,.91-3.39,2.55-.23,1.64,.91,3.16,2.55,3.39h0Zm-29.69-2.48h0c1.66,.04,3.03-1.27,3.08-2.92,.04-1.66-1.27-3.03-2.92-3.08h0c-1.66-.04-3.03,1.27-3.08,2.92-.04,1.66,1.27,3.03,2.92,3.08h0Zm-29.79,.94h0c1.65-.15,2.87-1.6,2.72-3.25-.15-1.65-1.6-2.87-3.25-2.72s-2.87,1.6-2.72,3.25c.15,1.65,1.6,2.87,3.25,2.72Zm-29.48,4.36h0c1.62-.34,2.66-1.93,2.33-3.55-.34-1.62-1.93-2.66-3.55-2.33h0c-1.62,.34-2.66,1.93-2.33,3.55s1.93,2.66,3.55,2.33h0Zm-28.77,7.76h0c1.57-.52,2.42-2.22,1.9-3.8s-2.22-2.42-3.8-1.9h0c-1.57,.52-2.42,2.22-1.9,3.79,.52,1.57,2.22,2.42,3.8,1.9h0Zm-27.66,11.07h0c1.5-.7,2.14-2.49,1.44-3.99-.7-1.5-2.49-2.14-3.99-1.44h0c-1.5,.7-2.14,2.49-1.44,3.99s2.49,2.14,3.99,1.44h0Zm-26.17,14.22h0c1.41-.87,1.84-2.72,.97-4.13-.87-1.41-2.72-1.84-4.13-.97h0c-1.41,.87-1.84,2.72-.97,4.13,.87,1.41,2.72,1.84,4.13,.96h0Zm-24.35,17.16h0c1.3-1.03,1.51-2.92,.48-4.22-1.03-1.3-2.92-1.51-4.22-.48h0c-1.3,1.03-1.51,2.92-.48,4.22,1.03,1.3,2.92,1.51,4.22,.48h0Zm-22.2,19.87h0c1.17-1.17,1.16-3.07-.01-4.24s-3.07-1.16-4.24,.01h0c-1.17,1.17-1.16,3.07,.01,4.24,1.17,1.17,3.07,1.16,4.24-.01h0Zm-19.77,22.3h0c1.03-1.3,.8-3.19-.5-4.21-1.3-1.02-3.19-.8-4.21,.5h0c-1.03,1.3-.8,3.19,.5,4.21,1.3,1.03,3.19,.8,4.21-.5h0Zm-17.06,24.44h0c.87-1.41,.43-3.26-.98-4.13s-3.26-.43-4.13,.98h0c-.87,1.41-.43,3.26,.98,4.13,1.41,.87,3.26,.43,4.13-.98h0Zm-14.11,26.25h0c.7-1.5,.05-3.29-1.46-3.98s-3.29-.05-3.98,1.46h0c-.7,1.5-.05,3.29,1.46,3.98s3.29,.05,3.98-1.46h0Zm-10.96,27.72h0c.52-1.57-.34-3.27-1.91-3.79-1.57-.52-3.27,.34-3.79,1.91h0c-.52,1.57,.34,3.27,1.91,3.79s3.27-.34,3.79-1.91h0Zm-7.64,28.82h0c.33-1.62-.72-3.21-2.34-3.54s-3.21,.72-3.54,2.34,.72,3.21,2.34,3.54,3.21-.72,3.54-2.34Zm-4.22,29.49h0c.14-1.65-1.09-3.1-2.74-3.24-1.65-.14-3.1,1.09-3.24,2.74h0c-.14,1.65,1.09,3.1,2.74,3.24s3.1-1.09,3.24-2.74h0Zm-.78,29.79h0c-.05-1.66-1.44-2.96-3.09-2.91s-2.96,1.44-2.91,3.09c.05,1.66,1.44,2.96,3.09,2.91s2.96-1.44,2.91-3.09Zm2.63,29.68h0c-.24-1.64-1.77-2.77-3.41-2.53-1.64,.24-2.77,1.77-2.53,3.4,.24,1.64,1.77,2.77,3.41,2.53,1.64-.24,2.77-1.77,2.53-3.4Zm6.05,29.17h0c-.43-1.6-2.08-2.55-3.68-2.12-1.6,.43-2.55,2.08-2.12,3.68h0c.43,1.6,2.08,2.55,3.68,2.12s2.55-2.08,2.12-3.68h0Zm9.42,28.27h0c-.61-1.54-2.36-2.29-3.9-1.67s-2.29,2.36-1.67,3.9h0c.61,1.54,2.36,2.29,3.9,1.67,1.54-.61,2.29-2.36,1.67-3.9h0Zm12.66,26.97h0c-.79-1.46-2.61-2-4.07-1.21-1.46,.79-2,2.61-1.21,4.07h0c.79,1.46,2.61,2,4.07,1.21,1.46-.79,2-2.61,1.21-4.07h0Zm15.71,25.31h0c-.95-1.35-2.83-1.68-4.18-.73s-1.68,2.83-.73,4.18,2.83,1.68,4.18,.73,1.68-2.83,.73-4.18Zm18.54,23.32h0c-1.1-1.24-3-1.34-4.24-.24-1.24,1.1-1.34,3-.24,4.24h0c1.1,1.23,3,1.34,4.24,.24,1.24-1.1,1.34-3,.24-4.24h0Zm21.11,21.03h0c-1.24-1.1-3.14-.99-4.24,.25-1.1,1.24-.99,3.14,.25,4.24,1.24,1.1,3.14,.99,4.24-.25,1.1-1.24,.99-3.14-.25-4.24Zm23.4,18.46h0c-1.36-.95-3.23-.62-4.18,.74-.95,1.36-.62,3.23,.74,4.18h0c1.36,.95,3.23,.62,4.18-.74,.95-1.36,.62-3.23-.74-4.18h0Zm25.38,15.63h0c-1.46-.79-3.28-.24-4.06,1.22-.79,1.46-.24,3.28,1.22,4.06h0c1.46,.79,3.28,.24,4.06-1.22,.79-1.46,.24-3.28-1.22-4.06h0Zm27.03,12.57h0c-1.54-.61-3.28,.14-3.89,1.68-.61,1.54,.14,3.28,1.68,3.89h0c1.54,.61,3.28-.14,3.89-1.68,.61-1.54-.14-3.28-1.69-3.89h0Zm28.31,9.33h0c-1.6-.43-3.24,.53-3.67,2.13-.43,1.6,.53,3.24,2.13,3.67s3.24-.53,3.67-2.13c.43-1.6-.53-3.24-2.13-3.67Zm29.19,5.95h0c-1.64-.24-3.16,.9-3.4,2.54-.24,1.64,.9,3.16,2.54,3.4h0c1.64,.24,3.16-.9,3.4-2.54s-.9-3.16-2.54-3.4h0Zm29.69,2.51h0c-1.66-.04-3.03,1.26-3.08,2.92-.04,1.66,1.26,3.03,2.92,3.08s3.03-1.26,3.08-2.92c.04-1.66-1.26-3.03-2.92-3.08Zm29.79-.91h0c-1.65,.15-2.87,1.6-2.72,3.25,.15,1.65,1.6,2.87,3.25,2.72h0c1.65-.15,2.87-1.6,2.73-3.25-.15-1.65-1.6-2.87-3.25-2.73h0Zm29.48-4.33h0c-1.62,.34-2.67,1.92-2.33,3.54,.34,1.62,1.92,2.67,3.55,2.33h0c1.62-.33,2.67-1.92,2.33-3.54-.34-1.62-1.92-2.67-3.55-2.33h0Zm28.77-7.73h0c-1.57,.52-2.42,2.22-1.9,3.79s2.22,2.42,3.79,1.9h0c1.57-.52,2.42-2.22,1.9-3.79-.52-1.57-2.22-2.42-3.79-1.9h0Zm27.67-11.04h0c-1.5,.7-2.15,2.49-1.44,3.99,.7,1.5,2.49,2.15,3.99,1.44h0c1.5-.7,2.15-2.49,1.44-3.99s-2.49-2.15-3.99-1.44h0Zm26.18-14.19h0c-1.41,.87-1.84,2.72-.97,4.13,.87,1.41,2.72,1.84,4.13,.97s1.84-2.72,.97-4.13c-.87-1.41-2.72-1.84-4.13-.97Zm24.36-17.14h0c-1.3,1.03-1.51,2.92-.48,4.22,1.03,1.3,2.92,1.51,4.22,.48h0c1.3-1.03,1.51-2.92,.48-4.22-1.03-1.3-2.92-1.51-4.21-.48h0Zm22.22-19.85h0c-1.17,1.17-1.17,3.07,0,4.24,1.17,1.17,3.07,1.17,4.24,0h0c1.17-1.17,1.17-3.07,0-4.24-1.17-1.17-3.07-1.17-4.24,0h0Zm19.79-22.28h0c-1.03,1.3-.81,3.19,.5,4.21s3.19,.81,4.21-.5h0c1.03-1.3,.8-3.19-.5-4.21s-3.19-.8-4.21,.5h0Zm17.09-24.42h0c-.87,1.41-.43,3.26,.98,4.13,1.41,.87,3.26,.43,4.13-.98h0c.87-1.41,.43-3.26-.98-4.13s-3.26-.43-4.13,.98h0Zm14.14-26.24h0c-.7,1.5-.05,3.29,1.45,3.99,1.5,.7,3.29,.05,3.99-1.45h0c.7-1.5,.05-3.29-1.45-3.99s-3.29-.05-3.99,1.45h0Zm10.99-27.71h0c-.52,1.57,.33,3.27,1.91,3.79,1.57,.52,3.27-.33,3.79-1.91h0c.52-1.57-.33-3.27-1.91-3.79s-3.27,.33-3.79,1.91h0Zm7.67-28.81h0c-.33,1.62,.71,3.21,2.34,3.54,1.62,.33,3.21-.72,3.54-2.34h0c.33-1.62-.72-3.21-2.34-3.54-1.62-.33-3.21,.72-3.54,2.34h0Zm4.25-29.49h0c-.14,1.65,1.08,3.1,2.73,3.24s3.1-1.08,3.24-2.73c.14-1.65-1.08-3.1-2.73-3.24s-3.1,1.08-3.24,2.73Z"/><g class="cls-2"><path class="cls-4" d="M342.84,476.98h-109.45c-10.51,0-19.03,8.52-19.03,19.03v62.73c23.73,6.54,48.72,10.05,74.52,10.05s50.79-3.51,74.52-10.05v-61.19c0-11.36-9.21-20.57-20.57-20.57Z"/></g><path class="cls-3" d="M268.71,544.72l-11.54-46.7h8.74l5.27,25.75c1.33,6.61,1.53,8.07,2.14,11.68h.13c.87-3.67,1.8-7.94,2.8-11.68l6.61-25.75h8.61l6.81,25.75c1.13,4.4,1.93,7.94,2.67,11.68h.13c.67-3.67,1.2-7.21,2.14-11.68l5.14-25.75h8.74l-11.54,46.7h-9.01l-6.6-25.22c-1.07-3.87-2.07-8.07-2.8-11.81h-.13c-.73,3.87-1.53,7.67-2.6,11.94l-6.61,25.09h-9.07Z"/><path class="cls-4" d="M322.54,355.87l-132.8,.1c-.99,0-1.79,.81-1.77,1.8,.95,36.8,31.06,65.43,67.26,65.43v-.02l132.8-.08c.99,0,1.79-.81,1.77-1.8-.95-36.8-31.06-65.43-67.26-65.43ZM189.75,221.82l132.8,.08v.02c36.2,0,66.31-28.63,67.26-65.43,.03-.99-.78-1.79-1.77-1.8l-132.8-.1c-36.2,0-66.31,28.63-67.26,65.43-.03,.99,.78,1.79,1.77,1.8Zm31.9,100.97c18.59,0,33.67-15.07,33.67-33.67s-15.07-33.67-33.67-33.67-33.67,15.07-33.67,33.67,15.07,33.67,33.67,33.67Z"/></svg>