<?xml version="1.0" encoding="UTF-8"?><svg id="Layer_1" xmlns="http://www.w3.org/2000/svg" xmlns:xlink="http://www.w3.org/1999/xlink" viewBox="0 0 577.78 577.78"><defs><style>.cls-1{fill:none;}.cls-2{clip-path:url(#clippath);}.cls-3{fill:#e62058;}.cls-4{fill:#fff;}</style><clipPath id="clippath"><circle class="cls-1" cx="288.89" cy="288.85" r="278.78"/></clipPath></defs><circle class="cls-4" cx="288.89" cy="288.85" r="278.78"/><path class="cls-3" d="M544.04,281.15h0c.05,1.66,1.43,2.96,3.09,2.91,1.66-.05,2.96-1.43,2.91-3.09-.05-1.66-1.43-2.96-3.09-2.91-1.66,.05-2.96,1.43-2.91,3.09Zm-.02-.51h0c.05,1.66,1.44,2.96,3.09,2.9s2.96-1.44,2.9-3.09h0c-.05-1.66-1.44-2.96-3.09-2.9s-2.96,1.44-2.9,3.09h0Zm-2.65-29.56h0c.24,1.64,1.77,2.77,3.41,2.53,1.64-.24,2.77-1.77,2.53-3.41h0c-.24-1.64-1.77-2.77-3.41-2.53s-2.77,1.77-2.53,3.41h0Zm-6.06-29.05h0c.43,1.6,2.08,2.55,3.68,2.11,1.6-.43,2.55-2.08,2.11-3.68h0c-.43-1.6-2.08-2.55-3.68-2.11-1.6,.43-2.55,2.08-2.11,3.68h0Zm-9.41-28.15h0c.62,1.54,2.36,2.28,3.9,1.67s2.28-2.36,1.67-3.9h0c-.62-1.54-2.36-2.29-3.9-1.67-1.54,.62-2.28,2.36-1.67,3.9h0Zm-12.63-26.85h0c.79,1.46,2.61,1.99,4.07,1.2s1.99-2.61,1.2-4.07h0c-.79-1.46-2.61-1.99-4.07-1.2-1.46,.79-1.99,2.61-1.2,4.07h0Zm-15.67-25.19h0c.96,1.35,2.83,1.68,4.18,.72,1.35-.96,1.68-2.83,.72-4.18h0c-.96-1.35-2.83-1.68-4.18-.72s-1.68,2.83-.72,4.18h0Zm-18.49-23.21h0c1.11,1.23,3,1.34,4.24,.23,1.23-1.11,1.34-3,.23-4.24h0c-1.11-1.23-3-1.34-4.24-.23-1.23,1.11-1.34,3-.23,4.24h0Zm-21.05-20.93h0c1.24,1.1,3.14,.98,4.23-.26s.98-3.14-.26-4.23c-1.24-1.1-3.14-.98-4.23,.26s-.98,3.14,.26,4.23Zm-23.33-18.36h0c1.36,.95,3.23,.61,4.18-.74,.95-1.36,.61-3.23-.74-4.18h0c-1.36-.95-3.23-.61-4.18,.74s-.61,3.23,.74,4.18h0Zm-25.29-15.54h0c1.46,.78,3.28,.24,4.06-1.22s.24-3.28-1.22-4.06h0c-1.46-.78-3.28-.24-4.06,1.22s-.24,3.28,1.22,4.06h0Zm-26.93-12.49h0c1.54,.61,3.28-.15,3.89-1.69s-.15-3.28-1.69-3.89h0c-1.54-.61-3.28,.15-3.89,1.69-.61,1.54,.15,3.28,1.69,3.89h0Zm-28.21-9.26h0c1.6,.42,3.24-.53,3.67-2.13s-.53-3.24-2.13-3.67h0c-1.6-.42-3.24,.53-3.67,2.13s.53,3.24,2.13,3.67h0Zm-29.08-5.9h0c1.64,.23,3.16-.91,3.39-2.55s-.91-3.16-2.55-3.39h0c-1.64-.23-3.16,.91-3.39,2.55s.91,3.16,2.55,3.39h0Zm-29.57-2.47h0c1.66,.04,3.03-1.27,3.08-2.92s-1.27-3.03-2.92-3.08-3.03,1.27-3.08,2.92,1.27,3.03,2.92,3.08Zm-29.67,.94h0c1.65-.15,2.87-1.6,2.72-3.25-.15-1.65-1.6-2.87-3.25-2.72h0c-1.65,.15-2.87,1.6-2.72,3.25,.15,1.65,1.6,2.87,3.25,2.72h0Zm-29.36,4.34h0c1.62-.34,2.66-1.93,2.33-3.55-.34-1.62-1.93-2.66-3.55-2.33-1.62,.34-2.66,1.93-2.33,3.55,.34,1.62,1.93,2.66,3.55,2.33Zm-28.65,7.73h0c1.57-.52,2.42-2.22,1.9-3.8s-2.22-2.42-3.8-1.9h0c-1.57,.52-2.42,2.22-1.9,3.8s2.22,2.42,3.8,1.9h0Zm-27.55,11.03h0c1.5-.7,2.14-2.49,1.44-3.99s-2.49-2.14-3.99-1.44h0c-1.5,.7-2.14,2.49-1.44,3.99s2.49,2.14,3.99,1.44h0Zm-26.06,14.16h0c1.41-.87,1.84-2.72,.96-4.13s-2.72-1.84-4.13-.96h0c-1.41,.87-1.84,2.72-.97,4.13s2.72,1.84,4.13,.97h0Zm-24.25,17.1h0c1.3-1.03,1.51-2.92,.48-4.22-1.03-1.3-2.92-1.51-4.22-.48h0c-1.3,1.03-1.51,2.92-.48,4.22,1.03,1.3,2.92,1.51,4.22,.48h0Zm-22.12,19.79h0c1.17-1.17,1.16-3.07-.01-4.24-1.17-1.17-3.07-1.16-4.24,.01h0c-1.17,1.17-1.16,3.07,.01,4.24,1.17,1.17,3.07,1.16,4.24-.01h0Zm-19.69,22.21h0c1.03-1.3,.8-3.19-.5-4.21s-3.19-.8-4.21,.5h0c-1.03,1.3-.8,3.19,.5,4.21s3.19,.8,4.21-.5h0Zm-16.99,24.34h0c.87-1.41,.43-3.26-.98-4.13s-3.26-.43-4.13,.98h0c-.87,1.41-.43,3.26,.98,4.13s3.26,.43,4.13-.98h0Zm-14.06,26.15h0c.7-1.5,.05-3.29-1.46-3.98s-3.29-.05-3.98,1.46-.05,3.29,1.46,3.98,3.29,.05,3.98-1.46Zm-10.91,27.61h0c.52-1.57-.34-3.27-1.91-3.79-1.57-.52-3.27,.34-3.79,1.91h0c-.52,1.57,.34,3.27,1.91,3.79,1.57,.52,3.27-.34,3.79-1.91h0Zm-7.61,28.7h0c.33-1.62-.72-3.21-2.34-3.54s-3.21,.72-3.54,2.34h0c-.33,1.62,.72,3.21,2.34,3.54s3.21-.72,3.54-2.34h0Zm-4.2,29.38h0c.14-1.65-1.09-3.1-2.74-3.24s-3.1,1.09-3.24,2.74h0c-.14,1.65,1.09,3.1,2.74,3.24,1.65,.14,3.1-1.09,3.24-2.74h0Zm-.78,29.67h0c-.05-1.66-1.44-2.96-3.09-2.91s-2.96,1.44-2.91,3.09h0c.05,1.66,1.44,2.96,3.09,2.91s2.96-1.44,2.91-3.09h0Zm2.62,29.56h0c-.24-1.64-1.77-2.77-3.41-2.53-1.64,.24-2.77,1.77-2.53,3.41h0c.24,1.64,1.77,2.77,3.41,2.53,1.64-.24,2.77-1.77,2.53-3.41h0Zm6.03,29.06h0c-.43-1.6-2.08-2.55-3.68-2.12s-2.55,2.08-2.12,3.68h0c.43,1.6,2.08,2.55,3.68,2.12s2.55-2.08,2.12-3.68h0Zm9.38,28.15h0c-.61-1.54-2.36-2.29-3.9-1.67s-2.29,2.36-1.67,3.9h0c.61,1.54,2.36,2.29,3.9,1.67s2.29-2.36,1.67-3.9h0Zm12.61,26.87h0c-.79-1.46-2.61-2-4.07-1.21s-2,2.61-1.21,4.07h0c.79,1.46,2.61,2,4.07,1.21s2-2.61,1.21-4.07h0Zm15.64,25.21h0c-.95-1.35-2.83-1.68-4.18-.73-1.35,.95-1.68,2.83-.73,4.18h0c.95,1.35,2.83,1.68,4.18,.73s1.68-2.83,.73-4.18h0Zm18.46,23.23h0c-1.1-1.24-3-1.34-4.24-.24s-1.34,3-.24,4.24h0c1.1,1.23,3,1.34,4.24,.24,1.24-1.1,1.34-3,.24-4.24h0Zm21.03,20.95h0c-1.24-1.1-3.14-.99-4.24,.25-1.1,1.24-.99,3.14,.25,4.24,1.24,1.1,3.14,.99,4.24-.25,1.1-1.24,.99-3.14-.25-4.24Zm23.31,18.38h0c-1.36-.95-3.23-.62-4.18,.74-.95,1.36-.62,3.23,.74,4.18s3.23,.62,4.18-.74c.95-1.36,.62-3.23-.74-4.18Zm25.28,15.56h0c-1.46-.79-3.28-.24-4.06,1.22-.79,1.46-.24,3.28,1.22,4.06h0c1.46,.79,3.28,.24,4.06-1.22s.24-3.28-1.22-4.06h0Zm26.92,12.52h0c-1.54-.61-3.28,.14-3.89,1.69s.14,3.28,1.69,3.89,3.28-.14,3.89-1.69-.14-3.28-1.69-3.89Zm28.2,9.29h0c-1.6-.43-3.24,.53-3.67,2.13-.43,1.6,.53,3.24,2.13,3.67h0c1.6,.43,3.24-.53,3.67-2.13s-.53-3.24-2.13-3.67h0Zm29.08,5.93h0c-1.64-.24-3.16,.9-3.4,2.54-.24,1.64,.9,3.16,2.54,3.4,1.64,.24,3.16-.9,3.4-2.54,.24-1.64-.9-3.16-2.54-3.4Zm29.57,2.5h0c-1.66-.04-3.03,1.26-3.08,2.92s1.26,3.03,2.92,3.08h0c1.66,.04,3.03-1.26,3.08-2.92,.04-1.66-1.26-3.03-2.92-3.08h0Zm29.67-.91h0c-1.65,.15-2.87,1.6-2.72,3.25s1.6,2.87,3.25,2.72h0c1.65-.15,2.87-1.6,2.73-3.25s-1.6-2.87-3.25-2.73h0Zm29.36-4.31h0c-1.62,.34-2.67,1.92-2.33,3.55,.34,1.62,1.92,2.67,3.55,2.33h0c1.62-.34,2.67-1.92,2.33-3.55-.34-1.62-1.92-2.67-3.55-2.33h0Zm28.66-7.7h0c-1.57,.52-2.42,2.22-1.9,3.79s2.22,2.42,3.79,1.9h0c1.57-.52,2.42-2.22,1.9-3.79-.52-1.57-2.22-2.42-3.79-1.9h0Zm27.56-11h0c-1.5,.7-2.15,2.49-1.44,3.99s2.49,2.15,3.99,1.44,2.15-2.49,1.44-3.99-2.49-2.15-3.99-1.44Zm26.08-14.13h0c-1.41,.87-1.84,2.72-.97,4.13s2.72,1.84,4.13,.97h0c1.41-.87,1.84-2.72,.97-4.13-.87-1.41-2.72-1.84-4.13-.97h0Zm24.27-17.07h0c-1.3,1.03-1.51,2.92-.48,4.21,1.03,1.3,2.92,1.51,4.21,.48h0c1.3-1.03,1.51-2.92,.48-4.21-1.03-1.3-2.92-1.51-4.22-.48h0Zm22.14-19.77h0c-1.17,1.17-1.17,3.07,0,4.24,1.17,1.17,3.07,1.17,4.24,0,1.17-1.17,1.17-3.07,0-4.24-1.17-1.17-3.07-1.17-4.24,0Zm19.71-22.19h0c-1.03,1.3-.8,3.19,.5,4.21s3.19,.8,4.21-.5,.8-3.19-.5-4.21-3.19-.8-4.21,.5Zm17.02-24.32h0c-.87,1.41-.43,3.26,.98,4.13s3.26,.43,4.13-.98h0c.87-1.41,.43-3.26-.98-4.13-1.41-.87-3.26-.43-4.13,.98h0Zm14.08-26.14h0c-.7,1.5-.05,3.29,1.45,3.99s3.29,.05,3.99-1.45h0c.7-1.5,.05-3.29-1.45-3.99s-3.29-.05-3.99,1.45h0Zm10.94-27.6h0c-.52,1.57,.33,3.27,1.91,3.79s3.27-.33,3.79-1.91h0c.52-1.57-.33-3.27-1.91-3.79-1.57-.52-3.27,.33-3.79,1.91h0Zm7.64-28.69h0c-.33,1.62,.72,3.21,2.34,3.54,1.62,.33,3.21-.72,3.54-2.34h0c.33-1.62-.72-3.21-2.34-3.54-1.62-.33-3.21,.72-3.54,2.34h0Zm4.23-29.37h0c-.14,1.65,1.08,3.1,2.73,3.24s3.1-1.08,3.24-2.73h0c.14-1.65-1.08-3.1-2.73-3.24s-3.1,1.08-3.24,2.73h0Z"/><g class="cls-2"><path class="cls-3" d="M342.63,476.24h-109.02c-10.47,0-18.95,8.48-18.95,18.95v62.48c23.64,6.51,48.52,10.01,74.23,10.01s50.59-3.5,74.23-10.01v-60.95c0-11.32-9.17-20.49-20.49-20.49Z"/></g><path class="cls-3" d="M363.23,264.95l-132.26-.1c-36.06,0-66.05,28.52-66.99,65.17-.03,.98,.78,1.79,1.76,1.79l132.26,.08v.02c36.06,0,66.05-28.52,66.99-65.17,.03-.98-.78-1.79-1.76-1.79Z"/><path class="cls-3" d="M430.27,164.54l-199.3-.1c-36.06,0-66.05,28.52-66.99,65.17-.03,.98,.78,1.79,1.76,1.79l199.3,.08v.02c36.06,0,66.05-28.52,66.99-65.17,.03-.98-.78-1.79-1.76-1.79Z"/><circle class="cls-3" cx="197.49" cy="398.34" r="33.52"/><path class="cls-4" d="M268.79,543.72l-11.5-46.52h8.71l5.25,25.65c1.33,6.58,1.53,8.04,2.13,11.63h.13c.86-3.66,1.79-7.91,2.79-11.63l6.58-25.65h8.57l6.78,25.65c1.13,4.39,1.93,7.91,2.66,11.63h.13c.66-3.66,1.2-7.18,2.13-11.63l5.12-25.65h8.71l-11.5,46.52h-8.97l-6.58-25.12c-1.06-3.85-2.06-8.04-2.79-11.76h-.13c-.73,3.85-1.53,7.64-2.59,11.9l-6.58,24.99h-9.04Z"/></svg>